<?xml version="1.0" encoding="UTF-8"?>
<svg width="352px" height="92px" viewBox="0 0 352 92" version="1.1" xmlns="http://www.w3.org/2000/svg" xmlns:xlink="http://www.w3.org/1999/xlink">
    <!-- Generator: Sketch 55.2 (78181) - https://sketchapp.com -->
    <title>Artboard</title>
    <desc>Created with Sketch.</desc>
    <g id="Artboard" stroke="none" stroke-width="1" fill="none" fill-rule="evenodd">
        <path d="M18.4632153,35.5570182 L26.8555858,40.7319611 L20.3814714,51.3225419 L11.9891008,46.147599 C11.6693899,45.9871349 11.1898306,45.6662114 10.5504087,45.184819 C5.59488894,41.6546077 2.35786409,36.8407555 0.839237057,30.7431179 C-0.759317711,24.0036237 0.239764033,17.7055003 3.83651226,11.8485589 C7.43326049,5.99161754 12.548559,2.26088206 19.1825613,0.656240586 C25.4968526,-0.70770467 31.2915268,0.054488599 36.5667575,2.94284326 L38.0054496,3.66492831 L47.2370572,9.44160875 L40.6430518,20.0321896 L31.4114441,14.3758566 C31.1716609,14.1351604 30.732065,13.8543524 30.0926431,13.5334241 C27.5349554,12.410175 24.8574163,12.1694824 22.0599455,12.811339 C18.862836,13.5334277 16.3051867,15.3787377 14.386921,18.3473244 C12.6285107,21.4763753 12.1489515,24.6454947 12.9482289,27.8547776 C13.5876508,30.5024361 14.9863652,32.7489005 17.1444142,34.5942382 C17.2243419,34.6744702 17.3442317,34.7747588 17.5040872,34.8951069 C17.6639427,35.015455 17.8437774,35.1358013 18.0435967,35.2561495 C18.2434161,35.3764976 18.3832875,35.4767862 18.4632153,35.5570182 Z" id="Path" fill="#FF002D" fill-rule="nonzero"></path>
        <path d="M36.6866485,46.8696841 C41.9618792,50.6405916 45.2388674,55.7352518 46.5177112,62.1538177 C47.796555,68.5723837 46.75751,74.5896989 43.400545,80.2059441 C41.0826405,83.9768516 38.0254504,86.8852206 34.2288828,88.9311385 C30.4323153,90.9770564 26.4160066,92 22.1798365,92 C18.1035219,92 14.267048,91.077345 10.6702997,89.2320073 C10.3505888,88.9913111 9.87102954,88.710503 9.23160763,88.3895747 L0,82.6128943 L6.47411444,72.0223135 L15.7057221,77.6786464 C15.8655775,77.7588785 16.3851001,78.0396865 17.2643052,78.521079 C19.9818483,79.7245601 22.8392221,79.8649641 25.8365123,78.9422953 C28.8338025,78.0196264 31.1316905,76.2344895 32.7302452,73.5868311 C34.4087277,70.9391727 34.9881951,68.0909768 34.4686649,65.042158 C33.9491346,61.9933392 32.5304385,59.5061822 30.2125341,57.5806124 C29.5731122,57.09922 29.0535896,56.738181 28.653951,56.4974848 L20.3814714,51.3225419 L26.8555858,40.7319611 L35.2479564,45.906904 C35.8873783,46.3882965 36.3669375,46.7092199 36.6866485,46.8696841 Z" id="Path" fill="#915B00" fill-rule="nonzero"></path>
        <polygon id="Path" fill="#999E72" fill-rule="nonzero" points="114.855586 35.0756282 114.855586 91.1575674 102.386921 91.1575674 102.386921 35.0756282"></polygon>
        <polygon id="Path" fill="#8A99C1" fill-rule="nonzero" points="77.5694823 91.1575674 65.2207084 91.1575674 65.2207084 35.0756282 77.5694823 35.0756282"></polygon>
        <path d="M114.855586,24.9664374 L114.855586,35.0756282 L102.386921,35.0756282 L102.386921,24.9664374 C102.386921,21.5164582 101.188023,18.5679738 98.7901907,16.1208955 C96.3923586,13.6738173 93.4750399,12.4502965 90.0381471,12.4502965 C86.6012544,12.4502965 83.6639541,13.6738173 81.226158,16.1208955 C78.788362,18.5679738 77.5694823,21.5164582 77.5694823,24.9664374 L77.5694823,35.0756282 L65.2207084,35.0756282 L65.2207084,24.9664374 C65.2207084,18.0664791 67.6384863,12.1895678 72.4741144,7.33552734 C77.3097426,2.48148687 83.1643616,0.0545030407 90.0381471,0.0545030407 C96.9119326,0.0545030407 102.766552,2.48148687 107.60218,7.33552734 C112.437808,12.1895678 114.855586,18.0664791 114.855586,24.9664374 Z" id="Path" fill="#005B2D" fill-rule="nonzero"></path>
        <polygon id="Path" fill="#FF7700" fill-rule="nonzero" points="102.386921 51.803932 102.386921 64.1997254 77.5694823 64.1997254 77.5694823 51.803932"></polygon>
        <path d="M151.302452,35.5570182 L159.694823,40.7319611 L153.220708,51.3225419 L144.828338,46.147599 C144.508627,45.9871349 144.029068,45.6662114 143.389646,45.184819 C138.434126,41.6546077 135.197101,36.8407555 133.678474,30.7431179 C132.079919,24.0036237 133.079001,17.7055003 136.675749,11.8485589 C140.272498,5.99161754 145.387796,2.26088206 152.021798,0.656240586 C158.33609,-0.70770467 164.130764,0.054488599 169.405995,2.94284326 L170.844687,3.66492831 L180.076294,9.44160875 L173.482289,20.0321896 L164.250681,14.3758566 C164.010898,14.1351604 163.571302,13.8543524 162.93188,13.5334241 C160.374192,12.410175 157.696653,12.1694824 154.899183,12.811339 C151.702073,13.5334277 149.144424,15.3787377 147.226158,18.3473244 C145.467748,21.4763753 144.988189,24.6454947 145.787466,27.8547776 C146.426888,30.5024361 147.825602,32.7489005 149.983651,34.5942382 C150.063579,34.6744702 150.183469,34.7747588 150.343324,34.8951069 C150.50318,35.015455 150.683014,35.1358013 150.882834,35.2561495 C151.082653,35.3764976 151.222525,35.4767862 151.302452,35.5570182 Z" id="Path" fill="#B78E8E" fill-rule="nonzero"></path>
        <path d="M169.525886,46.8696841 C174.801116,50.6405916 178.078104,55.7352518 179.356948,62.1538177 C180.635792,68.5723837 179.596747,74.5896989 176.239782,80.2059441 C173.921878,83.9768516 170.864687,86.8852206 167.06812,88.9311385 C163.271552,90.9770564 159.255244,92 155.019074,92 C150.942759,92 147.106285,91.077345 143.509537,89.2320073 C143.189826,88.9913111 142.710267,88.710503 142.070845,88.3895747 L132.839237,82.6128943 L139.313351,72.0223135 L148.544959,77.6786464 C148.704815,77.7588785 149.224337,78.0396865 150.103542,78.521079 C152.821085,79.7245601 155.678459,79.8649641 158.675749,78.9422953 C161.67304,78.0196264 163.970928,76.2344895 165.569482,73.5868311 C167.247965,70.9391727 167.827432,68.0909768 167.307902,65.042158 C166.788372,61.9933392 165.369676,59.5061822 163.051771,57.5806124 C162.412349,57.09922 161.892827,56.738181 161.493188,56.4974848 L153.220708,51.3225419 L159.694823,40.7319611 L168.087193,45.906904 C168.726615,46.3882965 169.206175,46.7092199 169.525886,46.8696841 Z" id="Path" fill="#D8A300" fill-rule="nonzero"></path>
        <polygon id="Path" fill="#89BA00" fill-rule="nonzero" points="247.694823 35.0756282 247.694823 91.1575674 235.226158 91.1575674 235.226158 35.0756282"></polygon>
        <polygon id="Path" fill="#A88CAD" fill-rule="nonzero" points="210.408719 91.1575674 198.059946 91.1575674 198.059946 35.0756282 210.408719 35.0756282"></polygon>
        <path d="M247.694823,24.9664374 L247.694823,35.0756282 L235.226158,35.0756282 L235.226158,24.9664374 C235.226158,21.5164582 234.02726,18.5679738 231.629428,16.1208955 C229.231596,13.6738173 226.314277,12.4502965 222.877384,12.4502965 C219.440491,12.4502965 216.503191,13.6738173 214.065395,16.1208955 C211.627599,18.5679738 210.408719,21.5164582 210.408719,24.9664374 L210.408719,35.0756282 L198.059946,35.0756282 L198.059946,24.9664374 C198.059946,18.0664791 200.477723,12.1895678 205.313351,7.33552734 C210.14898,2.48148687 216.003599,0.0545030407 222.877384,0.0545030407 C229.75117,0.0545030407 235.605789,2.48148687 240.441417,7.33552734 C245.277045,12.1895678 247.694823,18.0664791 247.694823,24.9664374 Z" id="Path" fill="#720087" fill-rule="nonzero"></path>
        <polygon id="Path" fill="#441CC1" fill-rule="nonzero" points="235.226158 51.803932 235.226158 64.1997254 210.408719 64.1997254 210.408719 51.803932"></polygon>
        <polygon id="Path" fill="#87002D" fill-rule="nonzero" points="300.80654 30.0210328 292.054496 21.2356646 312.915531 0.295198059 321.667575 9.08056622"></polygon>
        <polygon id="Path" fill="#7FAD96" fill-rule="nonzero" points="321.667575 83.2146318 312.915531 92 292.054496 71.0595334 300.80654 62.2741653"></polygon>
        <path d="M293.493188,37.3622309 C291.095356,39.7691931 289.896458,42.6976199 289.896458,46.147599 C289.896458,49.5975782 291.095356,52.526005 293.493188,54.9329672 L300.80654,62.2741653 L292.054496,71.0595334 L284.741144,63.7183354 C281.384179,60.3485883 279.146236,56.2969293 278.027248,51.5632369 L278.027248,40.7319611 C279.226164,35.8378046 281.464107,31.7861457 284.741144,28.5768627 L292.054496,21.2356646 L300.80654,30.0210328 L293.493188,37.3622309 Z" id="Path" fill="#607CFF" fill-rule="nonzero"></path>
        <polygon id="Path" fill="#AD9B7F" fill-rule="nonzero" points="265.678474 91.2779149 265.678474 1.01728311 278.027248 1.01728311 278.027248 91.2779149"></polygon>
        <polygon id="Path" fill="#5E5600" fill-rule="nonzero" points="352 91.1575674 339.651226 91.1575674 339.651226 46.0272515 352 46.0272515"></polygon>
        <polygon id="Path" fill="#C14CFF" fill-rule="nonzero" points="352 46.0272515 339.651226 46.0272515 339.651226 0.896935604 352 0.896935604"></polygon>
    </g>
</svg>